<?xml version="1.0" encoding="UTF-8"?>
<!-- Generator: Adobe Illustrator 27.0.1, SVG Export Plug-In . SVG Version: 6.00 Build 0)  -->
<svg version="1.1" width="218.8" height="100.6" id="Laag_1" xmlns="http://www.w3.org/2000/svg" xmlns:xlink="http://www.w3.org/1999/xlink" x="0px" y="0px" viewBox="0 0 218.8 100.6" style="enable-background:new 0 0 218.8 100.6;" xml:space="preserve">
<style type="text/css">
	.st0{fill:#CC2027;}
	.st1{fill:#FFFFFF;}
	.st2{enable-background:new    ;}
	.st3{fill:#1D1D1B;}
</style>
<path class="st0" d="M0,0h100.5v100.5H0V0z"/>
<path class="st1" d="M56,49.2l-8.3,22.9l-8.2-22.9h-6.4l11.7,32.6h5.7l11.7-32.6L56,49.2z M77.8,64.9l11.2-15.7h-7L71,64.6V49.2  h-6.1v32.6H71V65.2l12,16.7h7.8L77.8,64.9z M30.2,55.6l1.2-5.9c0,0-8.6-2.5-15,0c0,0-5.4,1.7-5.7,7.6c0,0-0.2,3.6,2.3,6.2  c0,0,1.3,1.2,2.7,2.1c0.8,0.6,2.1,1.2,3.3,1.8c0,0,2.6,1.3,4.5,2.4c0,0,3.5,1.7,2.6,4.5c0,0-1.5,5-13.2,0.7l-1.5,6.1  c0,0,9.5,2.9,16.2,0.2c0,0,5.6-1.9,5.9-8.3c0,0,0.2-3.9-2.4-6.7c0,0-0.9-1-1.7-1.6c0,0-3-2-4.2-2.4c0,0-3-1.2-4.9-2.2  c0,0-3.4-1.6-2.6-4.1C17.8,56.3,18.8,51.6,30.2,55.6"/>
<g class="st2">
	<path class="st3" d="M121.2,56.7h-5.4v4h6.3v1.8h-8.6V49.4h8.5v1.8h-6.2v3.6h5.4L121.2,56.7L121.2,56.7z M127.2,56l1.8-3.2h2.4   l-3,4.8l3.1,5h-2.4l-2-3.3l-1.9,3.3h-2.4l3.1-5l-3-4.8h2.4L127.2,56L127.2,56z M141.5,57.7c0,1.5-0.3,2.7-1,3.6   c-0.7,0.9-1.6,1.3-2.7,1.3c-1.1,0-1.9-0.3-2.6-1.1v4.6H133V52.8h2l0.1,1c0.7-0.7,1.5-1.2,2.6-1.2s2.1,0.4,2.8,1.3   C141.2,54.9,141.5,56.1,141.5,57.7L141.5,57.7L141.5,57.7z M139.4,57.6c0-1-0.2-1.7-0.6-2.3c-0.4-0.6-0.9-0.8-1.7-0.8   c-0.9,0-1.6,0.3-1.9,1.1v4.3c0.4,0.7,1.1,1.2,2,1.2c0.7,0,1.2-0.2,1.7-0.8C139.2,59.6,139.4,58.7,139.4,57.6z M147.7,62.7   c-1.4,0-2.5-0.4-3.4-1.3c-0.8-0.9-1.3-2.1-1.3-3.5v-0.2c0-1,0.2-1.8,0.6-2.6c0.4-0.7,0.9-1.3,1.6-1.8c0.7-0.4,1.4-0.7,2.2-0.7   c1.3,0,2.3,0.4,3.1,1.2c0.7,0.8,1.1,2.1,1.1,3.6v0.9h-6.4c0.1,0.8,0.3,1.4,0.8,1.9c0.5,0.5,1.1,0.7,1.8,0.7c1,0,1.8-0.4,2.5-1.2   l1.2,1.2c-0.4,0.6-0.9,1.1-1.6,1.3C149.2,62.5,148.5,62.7,147.7,62.7L147.7,62.7z M147.5,54.4c-0.6,0-1.1,0.2-1.5,0.7   c-0.3,0.4-0.6,1-0.7,1.7h4.1v-0.2c-0.1-0.7-0.2-1.3-0.6-1.7C148.5,54.6,148,54.4,147.5,54.4z M158.5,54.8c-0.2-0.1-0.6-0.1-0.9-0.1   c-1,0-1.7,0.4-2.1,1.2v6.7h-2.1v-9.7h2.1l0.1,1.1c0.5-0.8,1.2-1.2,2.2-1.2c0.3,0,0.6,0.1,0.7,0.2L158.5,54.8L158.5,54.8z M163,50.4   v2.4h1.7v1.7H163v5.5c0,0.4,0.1,0.7,0.2,0.8c0.2,0.2,0.4,0.2,0.8,0.2c0.2,0,0.5,0,0.7-0.1v1.7c-0.5,0.2-1,0.2-1.4,0.2   c-1.7,0-2.6-0.9-2.6-2.8v-5.5h-1.6v-1.7h1.6v-2.4C160.9,50.4,163,50.4,163,50.4z M171.8,59.9c0-0.4-0.2-0.7-0.5-0.9   c-0.3-0.2-0.8-0.4-1.6-0.6s-1.4-0.3-1.9-0.6c-1.1-0.5-1.7-1.3-1.7-2.3c0-0.8,0.3-1.6,1.1-2.1c0.7-0.6,1.6-0.8,2.7-0.8   s2.1,0.2,2.8,0.8c0.7,0.6,1.1,1.3,1.1,2.2h-2.1c0-0.4-0.2-0.7-0.5-1.1c-0.3-0.2-0.7-0.4-1.2-0.4s-0.9,0.1-1.2,0.3   c-0.3,0.2-0.5,0.5-0.5,0.9c0,0.3,0.2,0.6,0.4,0.7c0.2,0.2,0.8,0.4,1.7,0.6c0.8,0.2,1.6,0.4,2,0.7c0.4,0.2,0.8,0.6,1.1,0.9   c0.2,0.3,0.3,0.8,0.3,1.3c0,0.9-0.3,1.6-1.1,2.1s-1.7,0.8-2.9,0.8c-0.8,0-1.5-0.2-2.1-0.4c-0.7-0.2-1.1-0.7-1.5-1.2   c-0.3-0.5-0.5-1.1-0.5-1.7h2.1c0,0.5,0.2,0.9,0.6,1.2s0.8,0.4,1.4,0.4s1-0.1,1.3-0.3C171.7,60.6,171.8,60.2,171.8,59.9L171.8,59.9z    M180.5,50.3c0-0.3,0.1-0.6,0.3-0.8c0.2-0.2,0.5-0.3,0.9-0.3c0.4,0,0.7,0.1,0.9,0.3s0.3,0.5,0.3,0.8s-0.1,0.6-0.3,0.8   c-0.2,0.2-0.5,0.3-0.9,0.3c-0.4,0-0.7-0.1-0.9-0.3C180.6,50.9,180.5,50.6,180.5,50.3z M182.8,62.5h-2.1v-9.7h2.1V62.5z M187.3,52.8   l0.1,1.2c0.7-0.9,1.7-1.3,2.8-1.3c2.1,0,3.1,1.2,3.1,3.5v6.4h-2.2v-6.3c0-0.6-0.2-1.1-0.4-1.4c-0.2-0.3-0.7-0.4-1.3-0.4   c-0.9,0-1.6,0.4-2,1.2v6.9h-2.1v-9.8C185.2,52.8,187.3,52.8,187.3,52.8z"/>
</g>
<g class="st2">
	<path class="st3" d="M114.1,81.8v-8.1h-1.5V72h1.5v-0.9c0-1.1,0.3-1.9,0.9-2.5c0.6-0.6,1.4-0.9,2.6-0.9c0.4,0,0.8,0.1,1.2,0.2   l-0.1,1.7c-0.2-0.1-0.5-0.1-0.8-0.1c-1.1,0-1.6,0.6-1.6,1.7V72h2v1.7h-2v8.1H114.1L114.1,81.8z M119.9,69.5c0-0.3,0.1-0.6,0.3-0.8   c0.2-0.2,0.5-0.3,0.9-0.3s0.7,0.1,0.9,0.3c0.2,0.2,0.3,0.5,0.3,0.8c0,0.3-0.1,0.6-0.3,0.8c-0.2,0.2-0.5,0.3-0.9,0.3   s-0.7-0.1-0.9-0.3C120,70.1,119.9,69.8,119.9,69.5z M122.2,81.8H120V72h2.1V81.8z M133.1,77c0,1.5-0.3,2.7-1,3.6   c-0.7,0.9-1.6,1.3-2.8,1.3c-1.2,0-2.1-0.4-2.6-1.2l-0.1,1.1h-2V67.9h2.1v5c0.7-0.7,1.5-1.2,2.6-1.2c1.2,0,2.1,0.4,2.8,1.3   c0.7,0.9,1,2.1,1,3.7V77L133.1,77z M130.9,76.8c0-1.1-0.2-1.8-0.6-2.4c-0.4-0.5-0.9-0.8-1.7-0.8c-0.9,0-1.7,0.4-2,1.2v4   c0.4,0.8,1.1,1.2,2,1.2c0.7,0,1.2-0.2,1.6-0.7s0.6-1.3,0.6-2.3L130.9,76.8L130.9,76.8z M140,74c-0.2-0.1-0.6-0.1-0.9-0.1   c-1,0-1.7,0.4-2.1,1.2v6.7h-2.1V72h2.1l0.1,1.1c0.5-0.8,1.2-1.2,2.2-1.2c0.3,0,0.6,0.1,0.7,0.2V74L140,74z M145.7,82   c-1.4,0-2.5-0.4-3.4-1.3c-0.8-0.9-1.3-2.1-1.3-3.5v-0.2c0-1,0.2-1.8,0.6-2.6c0.4-0.7,0.9-1.3,1.6-1.8c0.7-0.4,1.4-0.7,2.2-0.7   c1.3,0,2.3,0.4,3.1,1.2s1.1,2.1,1.1,3.6v0.9h-6.4c0.1,0.8,0.3,1.4,0.8,1.9c0.5,0.5,1.1,0.7,1.8,0.7c1,0,1.8-0.4,2.5-1.2l1.2,1.2   c-0.4,0.6-0.9,1.1-1.6,1.3S146.6,82,145.7,82L145.7,82z M145.5,73.6c-0.6,0-1.1,0.2-1.5,0.7c-0.4,0.4-0.6,1-0.7,1.7h4.1v-0.2   c-0.1-0.7-0.2-1.3-0.6-1.7C146.5,73.9,146.1,73.6,145.5,73.6z M159.9,80.2c0.6,0,1-0.2,1.3-0.5c0.3-0.3,0.6-0.7,0.6-1.2h2.1   c0,0.6-0.2,1.2-0.6,1.7c-0.3,0.5-0.8,0.9-1.4,1.2c-0.6,0.3-1.2,0.5-2,0.5c-1.4,0-2.5-0.4-3.2-1.3c-0.8-0.9-1.2-2.1-1.2-3.6v-0.2   c0-1.5,0.4-2.6,1.2-3.6c0.8-0.9,1.9-1.3,3.2-1.3c1.2,0,2.1,0.3,2.8,1c0.7,0.7,1.1,1.6,1.2,2.6h-2.1c0-0.6-0.2-1-0.6-1.4   c-0.3-0.3-0.8-0.6-1.4-0.6c-0.7,0-1.2,0.2-1.7,0.7c-0.4,0.5-0.6,1.3-0.6,2.3V77c0,1.1,0.2,1.8,0.6,2.4   C158.7,80,159.2,80.2,159.9,80.2z M169.9,82c-1.4,0-2.5-0.4-3.4-1.3c-0.8-0.9-1.3-2.1-1.3-3.5v-0.2c0-1,0.2-1.8,0.6-2.6   c0.4-0.7,0.9-1.3,1.6-1.8c0.7-0.4,1.4-0.7,2.2-0.7c1.3,0,2.3,0.4,3.1,1.2s1.1,2.1,1.1,3.6v0.9h-6.4c0.1,0.8,0.3,1.4,0.8,1.9   s1.1,0.7,1.8,0.7c1,0,1.8-0.4,2.5-1.2l1.2,1.2c-0.4,0.6-0.9,1.1-1.6,1.3S170.7,82,169.9,82L169.9,82z M169.6,73.6   c-0.6,0-1.1,0.2-1.5,0.7c-0.3,0.4-0.6,1-0.7,1.7h4.1v-0.2c-0.1-0.7-0.2-1.3-0.6-1.7C170.7,73.8,170.3,73.6,169.6,73.6z M177.5,72   l0.1,1c0.7-0.8,1.7-1.2,2.8-1.2c1.3,0,2.2,0.5,2.6,1.5c0.7-1,1.7-1.5,3-1.5c1.1,0,1.9,0.3,2.4,0.9s0.8,1.5,0.8,2.6v6.4h-2.1v-6.4   c0-0.6-0.2-1.1-0.4-1.3s-0.7-0.4-1.3-0.4c-0.5,0-0.9,0.2-1.2,0.4c-0.3,0.2-0.5,0.6-0.7,1.1v6.7h-2.2v-6.4c0-1.2-0.6-1.7-1.7-1.7   c-0.9,0-1.5,0.3-1.9,1.1v7h-2.1V72H177.5L177.5,72z M195.9,82c-1.4,0-2.5-0.4-3.4-1.3c-0.8-0.9-1.3-2.1-1.3-3.5v-0.2   c0-1,0.2-1.8,0.6-2.6c0.4-0.7,0.9-1.3,1.6-1.8c0.7-0.4,1.4-0.7,2.2-0.7c1.3,0,2.3,0.4,3.1,1.2c0.7,0.8,1.1,2.1,1.1,3.6v0.9h-6.4   c0.1,0.8,0.3,1.4,0.8,1.9c0.5,0.5,1.1,0.7,1.8,0.7c1,0,1.8-0.4,2.5-1.2l1.2,1.2c-0.4,0.6-0.9,1.1-1.6,1.3   C197.4,81.8,196.6,82,195.9,82z M195.6,73.6c-0.6,0-1.1,0.2-1.5,0.7c-0.3,0.4-0.6,1-0.7,1.7h4.1v-0.2c-0.1-0.7-0.2-1.3-0.6-1.7   C196.6,73.8,196.2,73.6,195.6,73.6z M203.5,72l0.1,1.2c0.7-0.9,1.7-1.3,2.8-1.3c2.1,0,3.1,1.2,3.1,3.5v6.4h-2.2v-6.3   c0-0.6-0.2-1.1-0.4-1.4s-0.7-0.4-1.3-0.4c-0.9,0-1.6,0.4-2,1.2v6.9h-2.1V72H203.5z M214.5,69.6V72h1.7v1.7h-1.7v5.5   c0,0.4,0.1,0.7,0.2,0.8c0.2,0.2,0.4,0.2,0.8,0.2c0.2,0,0.5,0,0.7-0.1v1.7c-0.5,0.2-1,0.2-1.4,0.2c-1.7,0-2.6-0.9-2.6-2.8v-5.5h-1.7   V72h1.6v-2.4L214.5,69.6L214.5,69.6z"/>
</g>
</svg>